<svg xmlns="http://www.w3.org/2000/svg" width="1299" height="495" viewBox="0 0 1299 495"><g fill="#FFF" fill-rule="nonzero" opacity=".14"><path d="M99 396v100H-1z" opacity=".2"/><path d="M199 396v100H99z" opacity=".4"/><path d="M199 297v100H99z" opacity=".03"/><path d="M299 396v100H199z" opacity=".4"/><path d="M299 297v100H199z" opacity=".2"/><path d="M399 396v100H299z" opacity=".1"/><path d="M399 297v100H299zM499 396v100H399z" opacity=".08"/><path d="M499 297v100H399z" opacity=".2"/><path d="M599 396v100H499z" opacity=".1"/><path d="M599 297v100H499z" opacity=".1"/><path d="M699 396v100H599z" opacity=".15"/><path d="M699 297v100H599z" opacity=".2"/><path d="M799 396v100H699z" opacity=".3"/><path d="M799 297v100H699zM899 396v100H799z" opacity=".1"/><path d="M899 297v100H799z" opacity=".4"/><path d="M999 396v100H899z" opacity=".03"/><path d="M999 297v100H899zM1099 396v100H999z" opacity=".1"/><path d="M1099 297v100H999zM1199 396v100h-100z" opacity=".1"/><path d="M1199 297v100h-100z" opacity=".2"/><path d="M1299 297v100h-100z" opacity=".03"/><path d="M199 198v100H99z" opacity=".4"/><path d="M299 198v100H199zM399 198v100H299z" opacity=".03"/><path d="M499 198v100H399z" opacity=".1"/><path d="M599 198v100H499z" opacity=".2"/><path d="M699 198v100H599z" opacity=".15"/><path d="M799 198v100H699z" opacity=".1"/><path d="M899 198v100H799z" opacity=".03"/><path d="M999 198v100H899zM1099 198v100H999z" opacity=".1"/><path d="M1199 198v100h-100z" opacity=".03"/><path d="M1299 198v100h-100zM199 99v100H99z" opacity=".1"/><path d="M299 99v100H199z" opacity=".03"/><path d="M399 99v100H299z" opacity=".1"/><path d="M499 99v100H399z" opacity=".2"/><path d="M599 99v100H499z" opacity=".15"/><path d="M699 99v100H599zM899 99v100H799z" opacity=".1"/><path d="M999 99v100H899z" opacity=".2"/><path d="M1099 99v100H999z" opacity=".08"/><path d="M1199 99v100h-100z" opacity=".1"/><path d="M299 0v100H199z" opacity=".2"/><path d="M399 0v100H299zM499 0v100H399z" opacity=".03"/><path d="M999 0v100H899zM1299 0v100h-100z" opacity=".1"/></g></svg>