<svg xmlns="http://www.w3.org/2000/svg" width="1600" height="808" viewBox="0 0 1600 808"><g fill="#FFF" fill-rule="evenodd" opacity=".18"><path d="M-6.29 698l70.711 40.833-70.71 40.833L-77 738.833z" opacity=".2"/><path d="M-6.645 779.237l70.718-40.82.007 81.653-70.718 40.821z" opacity=".4"/><path d="M133.71 698l70.711 40.833-70.71 40.833L63 738.833z" opacity=".4"/><path d="M133.355 779.237l70.718-40.82.007 81.653-70.718 40.821z" opacity=".2"/><path d="M134.08 779.237l-.007 81.654-70.718-40.82.007-81.655zM273.71 698l70.711 40.833-70.71 40.833L203 738.833z" opacity=".2"/><path d="M273.355 779.237l70.718-40.82.007 81.653-70.718 40.821z" opacity=".56"/><path d="M274.08 779.237l-.007 81.654-70.718-40.82.007-81.655zM413.71 698l70.711 40.833-70.71 40.833L343 738.833z" opacity=".2"/><path d="M413.355 779.237l70.718-40.82.007 81.653-70.718 40.821z" opacity=".2"/><path d="M414.08 779.237l-.007 81.654-70.718-40.82.007-81.655z" opacity=".4"/><path d="M553.71 698l70.711 40.833-70.71 40.833L483 738.833z" opacity=".2"/><path d="M553.355 779.237l70.718-40.82.007 81.653-70.718 40.821z" opacity=".2"/><path d="M554.08 779.237l-.007 81.654-70.718-40.82.007-81.655zM693.71 698l70.711 40.833-70.71 40.833L623 738.833z" opacity=".4"/><path d="M693.355 779.237l70.718-40.82.007 81.653-70.718 40.821z" opacity=".2"/><path d="M694.08 779.237l-.007 81.654-70.718-40.82.007-81.655z" opacity=".4"/><path d="M833.71 698l70.711 40.833-70.71 40.833L763 738.833z" opacity=".2"/><path d="M833.355 779.237l70.718-40.82.007 81.653-70.718 40.821z" opacity=".2"/><path d="M834.08 779.237l-.007 81.654-70.718-40.82.007-81.655z" opacity=".2"/><path d="M973.71 698l70.711 40.833-70.71 40.833L903 738.833z" opacity=".4"/><path d="M973.355 779.237l70.718-40.82.007 81.653-70.718 40.821z" opacity=".4"/><path d="M974.08 779.237l-.007 81.654-70.718-40.82.007-81.655z" opacity=".2"/><path d="M1113.71 698l70.711 40.833-70.71 40.833L1043 738.833z" opacity=".4"/><path d="M1113.355 779.237l70.718-40.82.007 81.653-70.718 40.821z" opacity=".2"/><path d="M1114.08 779.237l-.007 81.654-70.718-40.82.007-81.655zM1253.71 698l70.711 40.833-70.71 40.833L1183 738.833z" opacity=".3"/><path d="M1253.355 779.237l70.718-40.82.007 81.653-70.718 40.821z" opacity=".2"/><path d="M1254.08 779.237l-.007 81.654-70.718-40.82.007-81.655zM1393.71 698l70.711 40.833-70.71 40.833L1323 738.833z" opacity=".2"/><path d="M1393.355 779.237l70.718-40.82.007 81.653-70.718 40.821z" opacity=".2"/><path d="M1394.08 779.237l-.007 81.654-70.718-40.82.007-81.655zM1533.71 698l70.711 40.833-70.71 40.833L1463 738.833z" opacity=".2"/><path d="M1533.355 779.237l70.718-40.82.007 81.653-70.718 40.821z" opacity=".2"/><path d="M1534.08 779.237l-.007 81.654-70.718-40.82.007-81.655zM1674.08 779.237l-.007 81.654-70.718-40.82.007-81.655z" opacity=".56"/><path d="M63.71 576l70.711 40.833-70.71 40.833L-7 616.833z" opacity=".2"/><path d="M63.355 657.237l70.718-40.82.007 81.653-70.718 40.821z" opacity=".3"/><path d="M64.08 657.237l-.007 81.654-70.718-40.82.007-81.655zM203.71 576l70.711 40.833-70.71 40.833L133 616.833z" opacity=".2"/><path d="M203.355 657.237l70.718-40.82.007 81.653-70.718 40.821z" opacity=".4"/><path d="M204.08 657.237l-.007 81.654-70.718-40.82.007-81.655zM343.71 576l70.711 40.833-70.71 40.833L273 616.833z" opacity=".2"/><path d="M343.355 657.237l70.718-40.82.007 81.653-70.718 40.821z" opacity=".2"/><path d="M344.08 657.237l-.007 81.654-70.718-40.82.007-81.655z" opacity=".3"/><path d="M483.71 576l70.711 40.833-70.71 40.833L413 616.833z" opacity=".56"/><path d="M483.355 657.237l70.718-40.82.007 81.653-70.718 40.821z" opacity=".2"/><path d="M484.08 657.237l-.007 81.654-70.718-40.82.007-81.655z" opacity=".4"/><path d="M623.71 576l70.711 40.833-70.71 40.833L553 616.833z" opacity=".2"/><path d="M623.355 657.237l70.718-40.82.007 81.653-70.718 40.821z" opacity=".2"/><path d="M624.08 657.237l-.007 81.654-70.718-40.82.007-81.655z" opacity=".4"/><path d="M763.71 576l70.711 40.833-70.71 40.833L693 616.833z" opacity=".2"/><path d="M763.355 657.237l70.718-40.82.007 81.653-70.718 40.821z" opacity=".3"/><path d="M764.08 657.237l-.007 81.654-70.718-40.82.007-81.655zM903.71 576l70.711 40.833-70.71 40.833L833 616.833z" opacity=".2"/><path d="M903.355 657.237l70.718-40.82.007 81.653-70.718 40.821z" opacity=".3"/><path d="M904.08 657.237l-.007 81.654-70.718-40.82.007-81.655z" opacity=".2"/><path d="M1043.71 576l70.711 40.833-70.71 40.833L973 616.833z" opacity=".56"/><path d="M1043.355 657.237l70.718-40.82.007 81.653-70.718 40.821z" opacity=".2"/><path d="M1044.08 657.237l-.007 81.654-70.718-40.82.007-81.655z" opacity=".2"/><path d="M1183.71 576l70.711 40.833-70.71 40.833L1113 616.833z" opacity=".56"/><path d="M1183.355 657.237l70.718-40.82.007 81.653-70.718 40.821z" opacity=".2"/><path d="M1184.08 657.237l-.007 81.654-70.718-40.82.007-81.655zM1323.71 576l70.711 40.833-70.71 40.833L1253 616.833z" opacity=".2"/><path d="M1323.355 657.237l70.718-40.82.007 81.653-70.718 40.821z" opacity=".4"/><path d="M1324.08 657.237l-.007 81.654-70.718-40.82.007-81.655zM1463.71 576l70.711 40.833-70.71 40.833L1393 616.833z" opacity=".2"/><path d="M1463.355 657.237l70.718-40.82.007 81.653-70.718 40.821z" opacity=".4"/><path d="M1464.08 657.237l-.007 81.654-70.718-40.82.007-81.655z" opacity=".4"/><path d="M1603.71 576l70.711 40.833-70.71 40.833L1533 616.833z" opacity=".2"/><path d="M1603.355 657.237l70.718-40.82.007 81.653-70.718 40.821z" opacity=".4"/><path d="M1604.08 657.237l-.007 81.654-70.718-40.82.007-81.655z" opacity=".2"/><path d="M-6.29 454l70.711 40.833-70.71 40.833L-77 494.833z" opacity=".56"/><path d="M-6.645 535.237l70.718-40.82.007 81.653-70.718 40.821z" opacity=".4"/><path d="M133.71 454l70.711 40.833-70.71 40.833L63 494.833z" opacity=".2"/><path d="M133.355 535.237l70.718-40.82.007 81.653-70.718 40.821z" opacity=".4"/><path d="M134.08 535.237l-.007 81.654-70.718-40.82.007-81.655zM273.71 454l70.711 40.833-70.71 40.833L203 494.833z" opacity=".2"/><path d="M273.355 535.237l70.718-40.82.007 81.653-70.718 40.821z" opacity=".56"/><path d="M274.08 535.237l-.007 81.654-70.718-40.82.007-81.655zM413.71 454l70.711 40.833-70.71 40.833L343 494.833z" opacity=".2"/><path d="M413.355 535.237l70.718-40.82.007 81.653-70.718 40.821z" opacity=".3"/><path d="M414.08 535.237l-.007 81.654-70.718-40.82.007-81.655zM553.71 454l70.711 40.833-70.71 40.833L483 494.833z" opacity=".2"/><path d="M553.355 535.237l70.718-40.82.007 81.653-70.718 40.821z" opacity=".4"/><path d="M554.08 535.237l-.007 81.654-70.718-40.82.007-81.655zM693.71 454l70.711 40.833-70.71 40.833L623 494.833z" opacity=".2"/><path d="M693.355 535.237l70.718-40.82.007 81.653-70.718 40.821z" opacity=".2"/><path d="M694.08 535.237l-.007 81.654-70.718-40.82.007-81.655z" opacity=".56"/><path d="M833.71 454l70.711 40.833-70.71 40.833L763 494.833z" opacity=".3"/><path d="M833.355 535.237l70.718-40.82.007 81.653-70.718 40.821z" opacity=".4"/><path d="M834.08 535.237l-.007 81.654-70.718-40.82.007-81.655z" opacity=".2"/><path d="M973.71 454l70.711 40.833-70.71 40.833L903 494.833z" opacity=".56"/><path d="M973.355 535.237l70.718-40.82.007 81.653-70.718 40.821z" opacity=".2"/><path d="M974.08 535.237l-.007 81.654-70.718-40.82.007-81.655z" opacity=".2"/><path d="M1113.71 454l70.711 40.833-70.71 40.833L1043 494.833z" opacity=".3"/><path d="M1113.355 535.237l70.718-40.82.007 81.653-70.718 40.821z" opacity=".2"/><path d="M1114.08 535.237l-.007 81.654-70.718-40.82.007-81.655z" opacity=".2"/><path d="M1253.71 454l70.711 40.833-70.71 40.833L1183 494.833z" opacity=".4"/><path d="M1253.355 535.237l70.718-40.82.007 81.653-70.718 40.821z" opacity=".56"/><path d="M1254.08 535.237l-.007 81.654-70.718-40.82.007-81.655zM1393.71 454l70.711 40.833-70.71 40.833L1323 494.833z" opacity=".2"/><path d="M1393.355 535.237l70.718-40.82.007 81.653-70.718 40.821z" opacity=".56"/><path d="M1394.08 535.237l-.007 81.654-70.718-40.82.007-81.655zM1533.71 454l70.711 40.833-70.71 40.833L1463 494.833z" opacity=".2"/><path d="M1533.355 535.237l70.718-40.82.007 81.653-70.718 40.821z" opacity=".5"/><path d="M1534.08 535.237l-.007 81.654-70.718-40.82.007-81.655zM1674.08 535.237l-.007 81.654-70.718-40.82.007-81.655z" opacity=".2"/><path d="M63.71 332l70.711 40.833-70.71 40.833L-7 372.833z" opacity=".56"/><path d="M63.355 413.237l70.718-40.82.007 81.653-70.718 40.821z" opacity=".2"/><path d="M64.08 413.237l-.007 81.654-70.718-40.82.007-81.655z" opacity=".3"/><path d="M203.71 332l70.711 40.833-70.71 40.833L133 372.833z" opacity=".2"/><path d="M203.355 413.237l70.718-40.82.007 81.653-70.718 40.821z" opacity=".2"/><path d="M204.08 413.237l-.007 81.654-70.718-40.82.007-81.655z" opacity=".4"/><path d="M343.71 332l70.711 40.833-70.71 40.833L273 372.833z" opacity=".2"/><path d="M343.355 413.237l70.718-40.82.007 81.653-70.718 40.821z" opacity=".3"/><path d="M344.08 413.237l-.007 81.654-70.718-40.82.007-81.655z" opacity=".4"/><path d="M483.71 332l70.711 40.833-70.71 40.833L413 372.833z" opacity=".3"/><path d="M483.355 413.237l70.718-40.82.007 81.653-70.718 40.821z" opacity=".3"/><path d="M484.08 413.237l-.007 81.654-70.718-40.82.007-81.655z" opacity=".2"/><path d="M623.71 332l70.711 40.833-70.71 40.833L553 372.833z" opacity=".56"/><path d="M623.355 413.237l70.718-40.82.007 81.653-70.718 40.821z" opacity=".2"/><path d="M624.08 413.237l-.007 81.654-70.718-40.82.007-81.655zM763.71 332l70.711 40.833-70.71 40.833L693 372.833z" opacity=".2"/><path d="M763.355 413.237l70.718-40.82.007 81.653-70.718 40.821z" opacity=".2"/><path d="M764.08 413.237l-.007 81.654-70.718-40.82.007-81.655z" opacity=".3"/><path d="M903.71 332l70.711 40.833-70.71 40.833L833 372.833z" opacity=".56"/><path d="M903.355 413.237l70.718-40.82.007 81.653-70.718 40.821z" opacity=".2"/><path d="M904.08 413.237l-.007 81.654-70.718-40.82.007-81.655zM1043.71 332l70.711 40.833-70.71 40.833L973 372.833z" opacity=".2"/><path d="M1043.355 413.237l70.718-40.82.007 81.653-70.718 40.821z" opacity=".56"/><path d="M1044.08 413.237l-.007 81.654-70.718-40.82.007-81.655z" opacity=".2"/><path d="M1183.71 332l70.711 40.833-70.71 40.833L1113 372.833z" opacity=".4"/><path d="M1183.355 413.237l70.718-40.82.007 81.653-70.718 40.821z" opacity=".2"/><path d="M1184.08 413.237l-.007 81.654-70.718-40.82.007-81.655z" opacity=".2"/><path d="M1323.71 332l70.711 40.833-70.71 40.833L1253 372.833z" opacity=".56"/><path d="M1323.355 413.237l70.718-40.82.007 81.653-70.718 40.821z" opacity=".2"/><path d="M1324.08 413.237l-.007 81.654-70.718-40.82.007-81.655z" opacity=".4"/><path d="M1463.71 332l70.711 40.833-70.71 40.833L1393 372.833z" opacity=".2"/><path d="M1463.355 413.237l70.718-40.82.007 81.653-70.718 40.821z" opacity=".56"/><path d="M1464.08 413.237l-.007 81.654-70.718-40.82.007-81.655z" opacity=".2"/><path d="M1603.71 332l70.711 40.833-70.71 40.833L1533 372.833z" opacity=".3"/><path d="M1603.355 413.237l70.718-40.82.007 81.653-70.718 40.821z" opacity=".4"/><path d="M1604.08 413.237l-.007 81.654-70.718-40.82.007-81.655z" opacity=".2"/><path d="M-6.29 210l70.711 40.833-70.71 40.833L-77 250.833z" opacity=".56"/><path d="M-6.645 291.237l70.718-40.82.007 81.653-70.718 40.821z" opacity=".2"/><path d="M133.71 210l70.711 40.833-70.71 40.833L63 250.833z" opacity=".2"/><path d="M133.355 291.237l70.718-40.82.007 81.653-70.718 40.821z" opacity=".56"/><path d="M134.08 291.237l-.007 81.654-70.718-40.82.007-81.655z" opacity=".3"/><path d="M273.71 210l70.711 40.833-70.71 40.833L203 250.833z" opacity=".4"/><path d="M273.355 291.237l70.718-40.82.007 81.653-70.718 40.821z" opacity=".56"/><path d="M274.08 291.237l-.007 81.654-70.718-40.82.007-81.655zM413.71 210l70.711 40.833-70.71 40.833L343 250.833z" opacity=".2"/><path d="M413.355 291.237l70.718-40.82.007 81.653-70.718 40.821z" opacity=".2"/><path d="M414.08 291.237l-.007 81.654-70.718-40.82.007-81.655z" opacity=".56"/><path d="M553.71 210l70.711 40.833-70.71 40.833L483 250.833z" opacity=".4"/><path d="M553.355 291.237l70.718-40.82.007 81.653-70.718 40.821z" opacity=".2"/><path d="M554.08 291.237l-.007 81.654-70.718-40.82.007-81.655z" opacity=".4"/><path d="M693.71 210l70.711 40.833-70.71 40.833L623 250.833z" opacity=".2"/><path d="M693.355 291.237l70.718-40.82.007 81.653-70.718 40.821z" opacity=".56"/><path d="M694.08 291.237l-.007 81.654-70.718-40.82.007-81.655z" opacity=".2"/><path d="M833.71 210l70.711 40.833-70.71 40.833L763 250.833z" opacity=".3"/><path d="M833.355 291.237l70.718-40.82.007 81.653-70.718 40.821z" opacity=".2"/><path d="M834.08 291.237l-.007 81.654-70.718-40.82.007-81.655zM973.71 210l70.711 40.833-70.71 40.833L903 250.833z" opacity=".2"/><path d="M973.355 291.237l70.718-40.82.007 81.653-70.718 40.821z" opacity=".56"/><path d="M974.08 291.237l-.007 81.654-70.718-40.82.007-81.655z" opacity=".2"/><path d="M1113.71 210l70.711 40.833-70.71 40.833L1043 250.833z" opacity=".3"/><path d="M1113.355 291.237l70.718-40.82.007 81.653-70.718 40.821z" opacity=".2"/><path d="M1114.08 291.237l-.007 81.654-70.718-40.82.007-81.655z" opacity=".2"/><path d="M1253.71 210l70.711 40.833-70.71 40.833L1183 250.833z" opacity=".56"/><path d="M1253.355 291.237l70.718-40.82.007 81.653-70.718 40.821z" opacity=".2"/><path d="M1254.08 291.237l-.007 81.654-70.718-40.82.007-81.655z" opacity=".2"/><path d="M1393.71 210l70.711 40.833-70.71 40.833L1323 250.833z" opacity=".56"/><path d="M1393.355 291.237l70.718-40.82.007 81.653-70.718 40.821z" opacity=".3"/><path d="M1394.08 291.237l-.007 81.654-70.718-40.82.007-81.655z" opacity=".3"/><path d="M1533.71 210l70.711 40.833-70.71 40.833L1463 250.833z" opacity=".2"/><path d="M1533.355 291.237l70.718-40.82.007 81.653-70.718 40.821z" opacity=".5"/><path d="M1534.08 291.237l-.007 81.654-70.718-40.82.007-81.655zM1674.08 291.237l-.007 81.654-70.718-40.82.007-81.655zM63.71 88l70.711 40.833-70.71 40.833L-7 128.833z" opacity=".2"/><path d="M63.355 169.237l70.718-40.82.007 81.653-70.718 40.821z" opacity=".4"/><path d="M64.08 169.237l-.007 81.654-70.718-40.82.007-81.655z" opacity=".2"/><path d="M203.71 88l70.711 40.833-70.71 40.833L133 128.833z" opacity=".3"/><path d="M203.355 169.237l70.718-40.82.007 81.653-70.718 40.821z" opacity=".2"/><path d="M204.08 169.237l-.007 81.654-70.718-40.82.007-81.655zM343.71 88l70.711 40.833-70.71 40.833L273 128.833z" opacity=".4"/><path d="M343.355 169.237l70.718-40.82.007 81.653-70.718 40.821z" opacity=".56"/><path d="M344.08 169.237l-.007 81.654-70.718-40.82.007-81.655zM483.71 88l70.711 40.833-70.71 40.833L413 128.833z" opacity=".2"/><path d="M483.355 169.237l70.718-40.82.007 81.653-70.718 40.821z" opacity=".4"/><path d="M484.08 169.237l-.007 81.654-70.718-40.82.007-81.655z" opacity=".2"/><path d="M623.71 88l70.711 40.833-70.71 40.833L553 128.833z" opacity=".56"/><path d="M623.355 169.237l70.718-40.82.007 81.653-70.718 40.821z" opacity=".2"/><path d="M624.08 169.237l-.007 81.654-70.718-40.82.007-81.655zM763.71 88l70.711 40.833-70.71 40.833L693 128.833z" opacity=".2"/><path d="M763.355 169.237l70.718-40.82.007 81.653-70.718 40.821z" opacity=".56"/><path d="M764.08 169.237l-.007 81.654-70.718-40.82.007-81.655z" opacity=".4"/><path d="M903.71 88l70.711 40.833-70.71 40.833L833 128.833z" opacity=".2"/><path d="M903.355 169.237l70.718-40.82.007 81.653-70.718 40.821z" opacity=".56"/><path d="M904.08 169.237l-.007 81.654-70.718-40.82.007-81.655zM1043.71 88l70.711 40.833-70.71 40.833L973 128.833z" opacity=".2"/><path d="M1043.355 169.237l70.718-40.82.007 81.653-70.718 40.821z" opacity=".2"/><path d="M1044.08 169.237l-.007 81.654-70.718-40.82.007-81.655z" opacity=".4"/><path d="M1183.71 88l70.711 40.833-70.71 40.833L1113 128.833z" opacity=".2"/><path d="M1183.355 169.237l70.718-40.82.007 81.653-70.718 40.821z" opacity=".2"/><path d="M1184.08 169.237l-.007 81.654-70.718-40.82.007-81.655z" opacity=".56"/><path d="M1323.71 88l70.711 40.833-70.71 40.833L1253 128.833z" opacity=".4"/><path d="M1323.355 169.237l70.718-40.82.007 81.653-70.718 40.821z" opacity=".2"/><path d="M1324.08 169.237l-.007 81.654-70.718-40.82.007-81.655zM1463.71 88l70.711 40.833-70.71 40.833L1393 128.833z" opacity=".2"/><path d="M1463.355 169.237l70.718-40.82.007 81.653-70.718 40.821z" opacity=".56"/><path d="M1464.08 169.237l-.007 81.654-70.718-40.82.007-81.655z" opacity=".4"/><path d="M1603.71 88l70.711 40.833-70.71 40.833L1533 128.833z" opacity=".3"/><path d="M1603.355 169.237l70.718-40.82.007 81.653-70.718 40.821z" opacity=".4"/><path d="M1604.08 169.237l-.007 81.654-70.718-40.82.007-81.655zM-6.29-34L64.422 6.833l-70.71 40.833L-77 6.833z" opacity=".2"/><path d="M-6.645 47.237l70.718-40.82.007 81.653-70.718 40.821z" opacity=".56"/><path d="M133.71-34l70.711 40.833-70.71 40.833L63 6.833z" opacity=".2"/><path d="M133.355 47.237l70.718-40.82.007 81.653-70.718 40.821z" opacity=".2"/><path d="M134.08 47.237l-.007 81.654-70.718-40.82.007-81.655z" opacity=".3"/><path d="M273.71-34l70.711 40.833-70.71 40.833L203 6.833z" opacity=".2"/><path d="M273.355 47.237l70.718-40.82.007 81.653-70.718 40.821z" opacity=".56"/><path d="M274.08 47.237l-.007 81.654-70.718-40.82.007-81.655z" opacity=".2"/><path d="M413.71-34l70.711 40.833-70.71 40.833L343 6.833z" opacity=".3"/><path d="M413.355 47.237l70.718-40.82.007 81.653-70.718 40.821z" opacity=".3"/><path d="M414.08 47.237l-.007 81.654-70.718-40.82.007-81.655zM553.71-34l70.711 40.833-70.71 40.833L483 6.833z" opacity=".2"/><path d="M553.355 47.237l70.718-40.82.007 81.653-70.718 40.821z" opacity=".2"/><path d="M554.08 47.237l-.007 81.654-70.718-40.82.007-81.655zM693.71-34l70.711 40.833-70.71 40.833L623 6.833z" opacity=".2"/><path d="M693.355 47.237l70.718-40.82.007 81.653-70.718 40.821z" opacity=".56"/><path d="M694.08 47.237l-.007 81.654-70.718-40.82.007-81.655z" opacity=".2"/><path d="M833.71-34l70.711 40.833-70.71 40.833L763 6.833z" opacity=".56"/><path d="M833.355 47.237l70.718-40.82.007 81.653-70.718 40.821z" opacity=".3"/><path d="M834.08 47.237l-.007 81.654-70.718-40.82.007-81.655zM973.71-34l70.711 40.833-70.71 40.833L903 6.833z" opacity=".2"/><path d="M973.355 47.237l70.718-40.82.007 81.653-70.718 40.821z" opacity=".2"/><path d="M974.08 47.237l-.007 81.654-70.718-40.82.007-81.655z" opacity=".4"/><path d="M1113.71-34l70.711 40.833-70.71 40.833L1043 6.833z" opacity=".2"/><path d="M1113.355 47.237l70.718-40.82.007 81.653-70.718 40.821z" opacity=".56"/><path d="M1114.08 47.237l-.007 81.654-70.718-40.82.007-81.655zM1253.71-34l70.711 40.833-70.71 40.833L1183 6.833z" opacity=".2"/><path d="M1253.355 47.237l70.718-40.82.007 81.653-70.718 40.821z" opacity=".4"/><path d="M1254.08 47.237l-.007 81.654-70.718-40.82.007-81.655z" opacity=".2"/><path d="M1393.71-34l70.711 40.833-70.71 40.833L1323 6.833z" opacity=".56"/><path d="M1393.355 47.237l70.718-40.82.007 81.653-70.718 40.821z" opacity=".2"/><path d="M1394.08 47.237l-.007 81.654-70.718-40.82.007-81.655zM1533.71-34l70.711 40.833-70.71 40.833L1463 6.833z" opacity=".2"/><path d="M1533.355 47.237l70.718-40.82.007 81.653-70.718 40.821z" opacity=".2"/><path d="M1534.08 47.237l-.007 81.654-70.718-40.82.007-81.655z" opacity=".56"/><path d="M1674.08 47.237l-.007 81.654-70.718-40.82.007-81.655z" opacity=".4"/></g></svg>